<?xml version="1.0" encoding="UTF-8"?>
<svg id="Layer_2" data-name="Layer 2" xmlns="http://www.w3.org/2000/svg" xmlns:xlink="http://www.w3.org/1999/xlink" viewBox="0 0 432.58 92.67">
  <defs>
    <style>
      .cls-1 {
        fill: #0496a2;
      }

      .cls-2 {
        fill: none;
      }

      .cls-3 {
        fill: #232a5f;
      }

      .cls-4 {
        fill: url(#linear-gradient);
      }

      .cls-5 {
        clip-path: url(#clippath);
      }
    </style>
    <clipPath id="clippath">
      <path class="cls-2" d="M48.88,66.19c-4.29.91-7.37.73-10.4.55-3.27-.19-6.47-.39-11.06.78-3.52.89-6.87,2.33-7.19,2.47-2.47,1.07-4.52,2.2-6.11,3.18,4.68,3.12,10.35,4.84,16.74,4.84,11.2,0,20.38-5.18,25.73-14.37-3.18,1.46-5.88,2.18-7.7,2.56"/>
    </clipPath>
    <linearGradient id="linear-gradient" x1="6664.47" y1="4110.24" x2="6665.47" y2="4110.24" gradientTransform="translate(-282996.3429 174614.3531) scale(42.4655 -42.4655)" gradientUnits="userSpaceOnUse">
      <stop offset="0" stop-color="#1d2354"/>
      <stop offset=".09" stop-color="#183962"/>
      <stop offset=".26" stop-color="#105a79"/>
      <stop offset=".44" stop-color="#0b748b"/>
      <stop offset=".61" stop-color="#078797"/>
      <stop offset=".8" stop-color="#04929f"/>
      <stop offset="1" stop-color="#0496a2"/>
    </linearGradient>
  </defs>
  <g id="Layer_1-2" data-name="Layer 1">
    <g>
      <path class="cls-3" d="M26.45,64.18c-6.67-2.44-10.91-10.55-10.91-21.71,0-13.43,6.16-22.46,15.32-22.46,5.3,0,9.8,3.09,12.53,8.56l14.29-5.21c-5.14-10.46-14.82-16.41-26.82-16.41C12.4,6.96,0,21.23,0,42.47c0,12.22,4.1,22.13,11.09,28.35,4.33-2.96,9.36-5,14.44-6.4.31-.08.61-.16.92-.24"/>
      <g class="cls-5">
        <rect class="cls-4" x="14.12" y="63.63" width="42.47" height="14.37"/>
      </g>
      <path class="cls-1" d="M93.87,16.74l-9.24,37.82-9.24-37.82h-15.59l11.89,48.75h10.27l-.52,2.19c-1.88,7.88-7.42,11.46-18.36,11.79v13.2c21.38-.32,29.46-6.55,34.15-25.82l12.23-50.11h-15.59Z"/>
      <path class="cls-1" d="M146.81,15.7c-4.65,0-8.6,1.74-11.42,5.03l-3.12,3.64v-7.63h-15.48v48.75h15.48v-24.37c0-10.11,4.43-12.24,8.15-12.24s8.16,2.13,8.16,12.24v24.37h15.49v-24.37c0-15.92-6.45-25.42-17.26-25.42"/>
      <path class="cls-1" d="M197.9,15.7c-7.54,0-14.14,2.06-19.67,6.12l5.67,10.03c2.76-1.88,6.21-2.97,9.62-2.97,6.06,0,9.68,3.29,9.93,9.03l.08,1.85h-13.89c-9.78,0-16.11,5.47-16.11,13.92s5.44,12.87,14.55,12.87c5.13,0,9.29-1.55,12.34-4.61l3.03-3.03v6.59h15.5v-28.56c0-14.09-7.07-21.23-21.03-21.23M203.43,45.3c0,4.74-3.27,8.06-7.94,8.06-3.76,0-6.28-2.06-6.28-5.12,0-3.34,2.78-5.75,6.59-5.75h7.63v2.81Z"/>
      <path class="cls-1" d="M258.39,15.7c-4.78,0-8.94,1.98-12.01,5.73l-3.15,3.83v-8.52h-15.5v74.91h15.5v-34.67l3.15,3.83c3.06,3.75,7.23,5.74,12.01,5.74,10.71,0,17.9-10.22,17.9-25.42s-7.19-25.42-17.9-25.42M251.91,53.35c-5.19,0-8.67-4.92-8.67-12.23s3.48-12.24,8.67-12.24,8.68,4.92,8.68,12.24-3.49,12.23-8.68,12.23"/>
      <path class="cls-1" d="M332.19,41.12c0-15.45-9.57-25.42-24.37-25.42s-24.38,9.97-24.38,25.42,9.57,25.42,24.38,25.42c10.43,0,18.42-4.99,22.15-13.77l-14.68-4.92c-1.52,3.48-4.21,5.5-7.47,5.5-4.59,0-7.95-3.92-8.56-9.96l-.2-1.96h33.13v-.31ZM299.08,38.71l.53-2.2c1.14-4.7,4.28-7.63,8.21-7.63s7.06,2.93,8.21,7.63l.53,2.2h-17.48Z"/>
      <path class="cls-1" d="M369.99,15.7c-4.79,0-8.94,1.98-12.02,5.73l-3.15,3.83v-8.52h-15.48v74.91h15.48v-34.67l3.15,3.83c3.08,3.75,7.23,5.74,12.02,5.74,10.71,0,17.89-10.22,17.89-25.42s-7.18-25.42-17.89-25.42M363.51,53.35c-5.19,0-8.68-4.92-8.68-12.23s3.49-12.24,8.68-12.24,8.67,4.92,8.67,12.24-3.48,12.23-8.67,12.23"/>
      <path class="cls-1" d="M422.43,52.3c-2.31,0-6.16-.9-6.16-7v-15.37h12.14v-13.19h-12.14V0h-9.22c-1.45,10.04-6.31,15.88-13.81,16.64v13.28h7.52v18.51c0,11.47,5.82,17.05,17.79,17.05h14.02v-13.19h-10.15Z"/>
    </g>
  </g>
</svg>